<svg xmlns="http://www.w3.org/2000/svg" xmlns:xlink="http://www.w3.org/1999/xlink" version="1.1" x="0px" y="0px" viewBox="0 0 100 100" enable-background="new 0 0 100 100" xml:space="preserve"><path fill="white" d="M58,53.1c1.3,0.4,2.7-0.4,3.1-1.7c0.4-1.3-0.4-2.7-1.7-3.1c-5.1-1.4-10.4,1.6-11.8,6.6c-0.8,2.9-0.4,6,1.1,8.6  c1.5,2.6,3.9,4.5,6.8,5.3c7.2,2,14.7-2.2,16.7-9.4c1.2-4.2,0.6-8.6-1.5-12.4c-2.1-3.8-5.6-6.5-9.8-7.7c-10.5-2.9-21.4,3.2-24.3,13.7  c-1.7,6.2-0.9,12.7,2.2,18.3C41.8,77,47,81,53.2,82.7c2.6,0.7,5.3,1.1,7.9,1.1c12.9,0,24.8-8.5,28.4-21.5c2.6-9.3,1.4-19-3.4-27.4  c-4.8-8.4-12.5-14.4-21.8-17c-23.7-6.6-48.3,7.3-54.9,31c-0.4,1.3,0.4,2.7,1.7,3.1c1.3,0.4,2.7-0.4,3.1-1.7  c5.8-21,27.7-33.3,48.8-27.5c8,2.2,14.7,7.4,18.8,14.7c4.1,7.2,5.1,15.6,2.9,23.6c-3.6,13-17.1,20.6-30.1,17c-4.9-1.4-9-4.5-11.5-9  c-2.5-4.4-3.1-9.6-1.8-14.4c2.2-7.8,10.3-12.4,18.2-10.2c2.9,0.8,5.3,2.7,6.8,5.3c1.5,2.6,1.9,5.7,1,8.6c-1.3,4.5-6,7.2-10.5,5.9  c-1.6-0.5-3-1.5-3.8-3c-0.8-1.5-1-3.2-0.6-4.8C53,53.9,55.5,52.5,58,53.1z"/></svg>